<svg id="svg" version="1.1" xmlns="http://www.w3.org/2000/svg" xmlns:xlink="http://www.w3.org/1999/xlink" width="400" height="404.4871794871795" viewBox="0, 0, 400,404.4871794871795"><g id="svgg"><path id="path0" d="M111.966 59.639 C 102.535 60.706,93.104 66.183,88.054 73.524 L 87.112 74.893 87.947 74.117 C 96.879 65.818,110.173 62.623,120.784 66.225 C 135.388 71.182,144.093 86.867,141.784 104.060 C 139.904 118.060,134.696 128.100,118.230 149.469 C 104.344 167.489,98.893 176.120,94.816 186.538 C 78.164 229.087,101.249 279.933,149.187 306.295 C 152.406 308.065,152.458 307.547,148.673 311.445 C 143.140 317.145,136.835 321.358,130.929 323.301 L 129.487 323.776 129.487 330.264 L 129.487 336.752 199.466 336.752 L 269.444 336.752 269.444 330.165 L 269.444 323.578 267.575 322.870 C 261.175 320.447,254.833 315.906,249.543 309.958 C 247.354 307.497,247.321 307.806,249.916 306.420 C 287.557 286.308,311.815 247.820,309.826 211.366 C 308.663 190.054,302.513 177.035,279.732 147.650 C 263.227 126.360,257.274 113.334,257.273 98.504 C 257.271 68.167,289.712 53.680,311.403 74.330 C 313.566 76.389,310.851 72.619,308.152 69.816 C 295.514 56.691,274.580 55.925,260.043 68.057 C 245.151 80.485,240.231 101.007,246.737 123.558 C 246.839 123.913,244.492 123.932,199.575 123.932 C 157.636 123.932,152.319 123.895,152.428 123.611 C 155.379 115.921,155.976 101.174,153.731 91.420 C 149.127 71.412,130.846 57.501,111.966 59.639 M239.708 130.091 C 239.524 130.547,199.662 189.314,199.536 189.315 C 199.456 189.316,190.859 176.696,180.430 161.271 C 170.002 145.847,160.949 132.481,160.314 131.571 L 159.159 129.915 199.469 129.915 C 221.640 129.915,239.747 129.994,239.708 130.091 M250.618 133.494 C 251.016 134.404,252.092 136.606,253.009 138.387 L 254.675 141.624 232.840 173.907 C 220.830 191.663,210.956 206.190,210.897 206.188 C 210.714 206.185,205.271 198.022,205.271 197.751 C 205.271 197.481,249.602 131.842,249.786 131.840 C 249.845 131.839,250.219 132.583,250.618 133.494 M171.862 165.063 L 193.974 197.755 191.301 201.709 C 189.830 203.883,188.508 205.788,188.363 205.942 C 188.136 206.184,145.255 143.341,144.750 142.027 C 144.690 141.868,145.445 140.160,146.428 138.231 C 147.411 136.301,148.482 134.112,148.809 133.366 C 149.135 132.619,149.480 132.090,149.576 132.190 C 149.671 132.290,159.700 147.083,171.862 165.063 M263.744 156.473 C 264.646 157.858,265.385 159.084,265.385 159.196 C 265.385 159.340,222.793 222.486,222.324 223.037 C 222.292 223.073,220.960 221.181,219.362 218.831 L 216.456 214.558 237.032 184.149 C 248.349 167.424,258.116 152.987,258.736 152.068 L 259.863 150.397 260.983 152.175 C 261.600 153.153,262.842 155.087,263.744 156.473 M161.070 182.714 C 172.721 199.942,182.310 214.186,182.380 214.366 C 182.526 214.748,176.920 223.165,176.686 222.915 C 176.541 222.760,134.219 160.204,133.893 159.663 C 133.599 159.176,139.322 150.551,139.633 151.012 C 139.773 151.219,149.419 165.485,161.070 182.714 M274.713 173.449 L 276.558 176.493 274.849 179.005 C 273.908 180.387,264.266 194.642,253.420 210.684 C 242.574 226.725,233.686 239.871,233.668 239.895 C 233.588 240.005,227.920 231.441,227.964 231.276 C 227.991 231.173,237.691 216.784,249.520 199.300 L 271.027 167.509 271.948 168.958 C 272.454 169.754,273.699 171.775,274.713 173.449 M149.783 199.640 C 161.537 217.012,171.154 231.272,171.154 231.328 C 171.154 231.541,165.567 239.743,165.426 239.737 C 165.344 239.734,155.698 225.575,143.989 208.274 L 122.699 176.816 123.347 175.641 C 124.707 173.172,128.050 167.933,128.228 167.993 C 128.330 168.027,138.030 182.269,149.783 199.640 M283.872 192.415 C 291.391 214.973,283.861 239.889,263.184 260.869 C 259.699 264.405,253.558 269.349,253.238 268.876 C 253.161 268.762,249.987 264.074,246.184 258.458 C 240.726 250.396,239.309 248.166,239.454 247.861 C 239.554 247.649,249.012 233.620,260.470 216.685 L 281.303 185.896 282.018 187.446 C 282.410 188.298,283.245 190.534,283.872 192.415 M138.889 217.141 C 150.347 234.087,159.711 248.063,159.697 248.199 C 159.641 248.759,145.883 268.794,145.650 268.656 C 141.448 266.177,134.764 259.643,128.241 251.638 C 115.410 235.891,110.098 216.280,113.819 198.397 C 114.584 194.719,117.443 186.316,117.925 186.328 C 117.997 186.330,127.431 200.196,138.889 217.141 M202.446 210.271 L 205.345 214.559 202.441 218.827 L 199.538 223.095 197.669 220.362 C 196.641 218.858,195.337 216.931,194.770 216.079 L 193.741 214.530 196.603 210.266 C 198.178 207.920,199.484 205.997,199.507 205.992 C 199.529 205.987,200.852 207.913,202.446 210.271 M191.291 227.370 L 193.971 231.343 191.075 235.636 L 188.179 239.929 185.329 235.728 C 183.761 233.417,182.479 231.445,182.479 231.344 C 182.479 230.774,188.136 222.875,188.364 223.126 C 188.499 223.275,189.817 225.185,191.291 227.370 M213.857 227.119 L 216.710 231.357 213.898 235.497 C 212.352 237.774,211.001 239.637,210.897 239.637 C 210.794 239.637,209.445 237.773,207.901 235.495 L 205.094 231.354 207.942 227.118 C 209.509 224.788,210.839 222.881,210.897 222.881 C 210.956 222.880,212.288 224.787,213.857 227.119 M179.584 243.686 C 181.061 245.854,182.325 247.772,182.393 247.947 C 182.594 248.472,176.925 256.723,176.604 256.372 C 176.463 256.217,175.145 254.311,173.676 252.137 L 171.005 248.184 173.376 244.646 C 175.963 240.789,176.696 239.744,176.818 239.744 C 176.862 239.744,178.107 241.518,179.584 243.686 M202.439 243.846 C 203.957 246.094,205.195 248.038,205.190 248.165 C 205.178 248.429,199.891 256.321,199.609 256.495 C 199.468 256.582,194.171 249.008,193.841 248.248 C 193.762 248.066,199.359 239.740,199.553 239.751 C 199.623 239.755,200.921 241.597,202.439 243.846 M225.208 243.918 C 226.756 246.214,227.991 248.168,227.953 248.260 C 227.678 248.932,222.329 256.583,222.193 256.499 C 222.099 256.441,220.773 254.533,219.247 252.260 L 216.473 248.128 219.294 243.944 C 220.846 241.642,222.178 239.756,222.255 239.752 C 222.332 239.747,223.661 241.622,225.208 243.918 M171.061 265.106 C 170.974 265.332,162.928 277.294,162.698 277.539 C 162.578 277.667,154.229 273.958,153.904 273.633 C 153.855 273.584,156.427 269.683,159.621 264.965 L 165.427 256.387 168.296 260.612 C 169.873 262.935,171.117 264.958,171.061 265.106 M190.998 260.560 C 192.541 262.842,193.803 264.821,193.803 264.957 C 193.803 265.094,192.539 267.067,190.994 269.344 L 188.185 273.482 187.614 272.692 C 185.971 270.421,182.609 265.236,182.598 264.957 C 182.588 264.708,187.980 256.410,188.151 256.410 C 188.174 256.410,189.455 258.277,190.998 260.560 M239.512 265.034 C 242.595 269.601,245.162 273.456,245.218 273.601 C 245.315 273.852,242.779 275.103,238.305 277.009 L 236.546 277.758 235.615 276.433 C 233.010 272.722,227.991 265.165,227.991 264.951 C 227.991 264.548,233.610 256.386,233.765 256.565 C 233.844 256.656,236.430 260.467,239.512 265.034 M213.885 260.793 L 216.683 264.962 213.877 269.126 C 212.333 271.417,210.995 273.291,210.905 273.291 C 210.814 273.291,209.472 271.416,207.923 269.125 L 205.107 264.960 207.916 260.792 C 209.461 258.500,210.806 256.624,210.906 256.624 C 211.005 256.624,212.346 258.500,213.885 260.793 M179.712 277.482 C 183.379 282.945,183.373 283.022,179.338 282.251 C 177.283 281.859,175.339 281.411,172.792 280.744 C 172.263 280.606,172.010 280.431,172.079 280.253 C 172.216 279.896,176.713 273.291,176.818 273.291 C 176.862 273.291,178.164 275.177,179.712 277.482 M202.497 277.519 C 205.646 282.226,205.492 281.660,204.128 283.494 L 203.611 284.188 199.485 284.188 L 195.360 284.188 194.569 282.997 C 194.134 282.342,193.808 281.735,193.844 281.647 C 194.012 281.241,199.456 273.292,199.561 273.299 C 199.626 273.304,200.947 275.203,202.497 277.519 M224.861 276.993 C 226.113 278.854,227.137 280.446,227.137 280.533 C 227.137 280.723,222.271 281.897,219.364 282.408 L 217.254 282.779 216.855 282.287 C 216.636 282.016,216.528 281.682,216.615 281.544 C 217.437 280.251,221.713 273.952,221.968 273.659 C 222.367 273.201,222.106 272.900,224.861 276.993 M89.543 367.004 C 89.627 367.448,89.517 367.752,89.316 367.628 C 89.199 367.556,89.103 367.608,89.103 367.745 C 89.103 367.882,88.974 367.945,88.818 367.885 C 88.661 367.825,88.533 367.907,88.533 368.067 C 88.533 368.226,88.613 368.308,88.711 368.247 C 88.809 368.187,88.889 368.233,88.889 368.349 C 88.889 368.466,88.697 368.622,88.462 368.697 C 88.226 368.771,88.034 368.914,88.034 369.014 C 88.034 369.114,87.970 369.364,87.891 369.569 C 87.793 369.823,87.827 369.893,87.998 369.787 C 88.135 369.702,88.248 369.724,88.248 369.836 C 88.248 369.948,88.111 370.092,87.945 370.156 C 87.716 370.244,87.661 370.119,87.721 369.645 C 87.816 368.892,87.687 368.859,87.134 369.497 C 86.725 369.969,86.711 369.970,86.414 369.563 C 86.247 369.336,86.111 369.258,86.111 369.391 C 86.111 369.524,86.209 369.693,86.328 369.767 C 86.448 369.841,86.488 369.995,86.417 370.110 C 86.346 370.224,86.404 370.458,86.546 370.629 C 86.885 371.038,86.599 371.031,86.189 370.621 C 86.014 370.446,85.939 370.181,86.023 370.034 C 86.108 369.886,85.985 369.957,85.752 370.192 C 85.518 370.427,85.361 370.812,85.403 371.047 L 85.479 371.474 85.276 371.047 L 85.073 370.620 85.054 371.047 C 85.040 371.390,84.998 371.413,84.841 371.166 C 84.705 370.950,84.776 370.744,85.077 370.483 L 85.508 370.109 85.062 370.143 C 84.816 370.161,84.615 370.300,84.615 370.451 C 84.615 370.603,84.526 370.726,84.416 370.726 C 84.307 370.726,84.157 370.914,84.085 371.143 C 84.005 371.394,83.830 371.512,83.644 371.441 C 83.475 371.376,83.398 371.222,83.474 371.098 C 83.638 370.834,83.191 371.067,82.658 371.522 C 82.348 371.788,82.275 371.777,82.077 371.437 C 81.896 371.126,81.849 371.114,81.844 371.378 C 81.837 371.747,82.238 372.222,82.557 372.222 C 82.671 372.222,82.700 372.159,82.623 372.082 C 82.425 371.883,82.912 371.346,83.154 371.496 C 83.270 371.567,83.237 371.761,83.077 371.955 C 82.844 372.238,82.851 372.269,83.120 372.150 C 83.296 372.072,83.608 371.949,83.814 371.877 C 84.020 371.804,84.188 371.618,84.188 371.462 C 84.188 371.306,84.301 371.110,84.438 371.025 C 84.614 370.916,84.638 370.991,84.519 371.279 C 84.427 371.504,84.346 371.808,84.341 371.955 C 84.335 372.102,84.177 372.222,83.989 372.222 C 83.802 372.222,83.553 372.431,83.437 372.686 C 83.167 373.280,82.253 373.428,81.893 372.936 C 81.745 372.733,81.624 372.663,81.624 372.780 C 81.624 372.896,81.742 373.109,81.886 373.253 C 82.092 373.460,82.091 373.605,81.881 373.942 C 81.662 374.293,81.670 374.390,81.926 374.488 C 82.098 374.554,82.183 374.752,82.115 374.929 C 82.015 375.190,81.958 375.196,81.811 374.964 C 81.688 374.770,81.629 374.760,81.627 374.934 C 81.625 375.074,81.722 375.249,81.841 375.323 C 81.961 375.396,82.007 375.540,81.944 375.641 C 81.882 375.742,81.926 375.884,82.043 375.957 C 82.181 376.041,82.165 376.233,82.001 376.497 C 81.708 376.966,81.346 376.627,81.525 376.051 C 81.642 375.675,80.654 375.095,80.453 375.421 C 80.307 375.657,80.700 375.923,80.958 375.763 C 81.374 375.506,81.375 376.814,80.960 377.203 C 80.507 377.627,80.596 378.044,81.099 377.851 C 81.335 377.761,81.377 377.831,81.266 378.128 C 81.145 378.450,81.175 378.481,81.424 378.288 C 81.847 377.960,82.540 377.981,82.263 378.314 C 82.149 378.452,82.118 378.628,82.196 378.706 C 82.465 378.975,82.692 378.843,82.692 378.419 C 82.692 378.169,82.835 377.991,83.036 377.991 C 83.258 377.991,83.334 377.875,83.252 377.660 C 83.182 377.477,83.211 377.381,83.316 377.446 C 83.677 377.670,87.299 372.004,86.951 371.758 C 86.705 371.583,86.717 371.564,87.017 371.660 C 87.411 371.787,89.103 369.534,89.103 368.883 C 89.103 368.708,89.184 368.615,89.284 368.677 C 89.434 368.769,89.710 368.370,90.105 367.492 C 90.139 367.417,90.018 367.233,89.836 367.082 C 89.654 366.931,89.523 366.896,89.543 367.004 M87.175 367.524 C 86.927 367.677,86.917 367.772,87.126 367.981 C 87.336 368.190,87.299 368.342,86.948 368.715 C 86.677 369.004,86.591 369.238,86.727 369.322 C 86.848 369.397,87.096 369.172,87.276 368.823 C 87.508 368.375,87.535 368.143,87.370 368.041 C 87.205 367.939,87.220 367.842,87.418 367.720 C 87.574 367.624,87.653 367.497,87.594 367.438 C 87.536 367.379,87.347 367.418,87.175 367.524 M87.939 367.788 C 87.775 368.319,87.895 368.761,88.173 368.655 C 88.371 368.579,88.394 368.436,88.251 368.169 C 88.140 367.961,88.110 367.731,88.184 367.656 C 88.258 367.582,88.252 367.521,88.170 367.521 C 88.088 367.521,87.984 367.642,87.939 367.788 M321.462 372.345 C 321.234 372.530,321.174 372.616,321.328 372.537 C 321.487 372.456,321.740 372.565,321.909 372.788 C 322.187 373.155,322.209 373.156,322.215 372.810 C 322.219 372.604,322.120 372.436,321.996 372.436 C 321.871 372.436,321.829 372.340,321.902 372.222 C 322.091 371.916,321.939 371.958,321.462 372.345 M98.059 372.932 C 96.476 375.105,91.053 383.419,91.134 383.549 C 91.191 383.641,91.093 383.771,90.918 383.838 C 90.742 383.906,90.598 384.108,90.598 384.288 C 90.598 384.468,90.502 384.615,90.385 384.615 C 90.267 384.615,90.171 384.755,90.171 384.925 C 90.171 385.096,90.003 385.329,89.799 385.443 C 89.594 385.558,89.505 385.730,89.601 385.826 C 89.697 385.922,89.867 385.838,89.978 385.639 C 90.395 384.894,90.859 384.561,91.053 384.867 C 91.186 385.076,91.238 385.038,91.253 384.722 C 91.264 384.480,91.321 384.414,91.383 384.569 C 91.535 384.948,91.007 385.571,90.807 385.248 C 90.713 385.096,90.615 385.171,90.542 385.448 C 90.448 385.807,90.493 385.855,90.780 385.701 C 91.132 385.513,91.290 385.470,91.637 385.470 C 91.739 385.470,91.794 385.218,91.760 384.909 C 91.715 384.497,91.762 384.411,91.936 384.586 C 92.110 384.760,92.271 384.735,92.540 384.492 C 92.819 384.239,92.945 384.223,93.067 384.421 C 93.167 384.581,93.139 384.626,92.996 384.538 C 92.869 384.459,92.711 384.482,92.645 384.588 C 92.580 384.694,92.717 384.830,92.951 384.892 C 93.185 384.953,93.376 385.127,93.376 385.279 C 93.376 385.494,93.319 385.499,93.120 385.299 C 92.682 384.861,92.151 385.003,92.039 385.589 C 91.960 386.005,92.009 386.107,92.246 386.017 C 92.416 385.951,92.621 385.896,92.699 385.894 C 92.778 385.892,92.698 385.793,92.521 385.674 C 92.287 385.516,92.374 385.496,92.842 385.600 C 93.194 385.678,93.583 385.821,93.706 385.917 C 93.829 386.013,94.118 386.082,94.347 386.071 C 94.577 386.060,94.909 386.088,95.085 386.134 C 95.432 386.225,95.497 385.594,95.241 384.615 C 95.112 384.119,95.119 384.122,95.343 384.653 C 95.476 384.968,95.783 385.277,96.026 385.341 C 96.466 385.456,96.466 385.458,96.044 385.801 C 95.712 386.071,95.698 386.121,95.980 386.034 C 96.178 385.972,96.378 386.035,96.424 386.174 C 96.487 386.362,96.668 386.350,97.132 386.127 C 98.060 385.680,98.241 385.685,98.364 386.154 C 98.425 386.389,98.572 386.522,98.690 386.449 C 98.809 386.376,98.996 386.477,99.106 386.675 C 99.287 386.998,99.332 386.987,99.558 386.567 C 99.695 386.310,99.893 386.152,99.998 386.217 C 100.192 386.337,101.821 384.130,104.872 379.614 L 106.591 377.071 103.439 375.318 C 101.705 374.354,99.861 373.318,99.342 373.016 L 98.397 372.467 98.059 372.932 M322.925 372.700 C 322.570 373.158,322.467 373.637,322.657 373.944 C 322.764 374.116,322.743 374.353,322.608 374.516 C 322.437 374.722,322.478 374.906,322.764 375.222 C 323.167 375.668,322.731 375.773,322.105 375.382 C 321.982 375.305,321.742 375.330,321.571 375.438 C 321.350 375.578,321.338 375.643,321.528 375.664 C 321.675 375.681,321.891 375.718,322.009 375.748 C 322.126 375.777,322.275 375.813,322.340 375.828 C 322.405 375.843,322.189 376.111,321.859 376.424 C 321.487 376.778,321.402 376.942,321.635 376.858 C 321.840 376.783,322.009 376.822,322.009 376.942 C 322.009 377.063,322.105 377.103,322.222 377.030 C 322.340 376.957,322.436 376.802,322.436 376.684 C 322.436 376.567,322.340 376.530,322.222 376.603 C 322.105 376.675,322.009 376.643,322.009 376.531 C 322.009 376.332,322.544 376.022,322.970 375.975 C 323.088 375.961,323.304 376.097,323.451 376.277 C 323.681 376.557,323.699 376.542,323.580 376.175 C 323.503 375.940,323.267 375.554,323.055 375.317 C 322.814 375.048,322.735 374.780,322.846 374.601 C 322.984 374.377,323.088 374.409,323.327 374.750 C 323.533 375.044,323.728 375.126,323.928 375.002 C 324.173 374.851,324.176 374.761,323.945 374.482 C 323.791 374.297,323.750 374.145,323.854 374.145 C 323.958 374.145,324.163 374.338,324.309 374.573 C 324.456 374.808,324.488 375.000,324.381 375.000 C 324.273 375.000,324.236 375.194,324.298 375.431 C 324.384 375.762,324.330 375.830,324.064 375.728 C 323.674 375.579,323.621 375.805,323.935 376.282 C 324.122 376.567,324.171 376.567,324.378 376.282 C 324.565 376.023,324.590 376.054,324.504 376.442 C 324.433 376.770,324.499 376.923,324.712 376.923 C 324.894 376.923,324.962 376.820,324.873 376.676 C 324.780 376.527,324.814 376.488,324.958 376.576 C 325.088 376.657,325.142 376.861,325.077 377.030 C 324.958 377.342,324.562 377.372,324.348 377.087 C 324.139 376.807,322.863 376.638,322.863 376.890 C 322.863 377.023,323.024 377.063,323.237 376.983 C 323.565 376.860,323.575 376.888,323.318 377.204 C 323.136 377.427,323.113 377.564,323.258 377.564 C 323.386 377.564,323.440 377.696,323.378 377.857 C 323.317 378.018,323.437 378.216,323.646 378.296 C 323.970 378.420,323.980 378.471,323.712 378.641 C 323.480 378.787,323.471 378.840,323.677 378.843 C 323.831 378.845,323.903 378.933,323.837 379.040 C 323.771 379.146,323.909 379.184,324.143 379.122 C 324.376 379.061,324.515 378.926,324.451 378.822 C 324.297 378.572,324.597 378.586,325.000 378.846 C 325.285 379.030,325.285 379.054,325.000 379.057 C 324.810 379.059,324.667 379.277,324.649 379.594 C 324.632 379.888,324.704 380.128,324.809 380.128 C 324.914 380.128,325.000 379.926,325.000 379.678 C 325.000 379.350,325.094 379.264,325.348 379.361 C 325.773 379.525,326.332 379.103,326.132 378.769 C 326.041 378.617,326.110 378.626,326.314 378.791 C 326.494 378.937,326.721 378.985,326.817 378.898 C 326.913 378.811,326.921 378.861,326.836 379.010 C 326.750 379.159,326.596 379.229,326.494 379.166 C 326.392 379.103,326.230 379.182,326.135 379.341 C 326.040 379.501,325.783 379.729,325.564 379.848 C 325.205 380.044,325.201 380.078,325.522 380.201 C 325.718 380.276,325.822 380.248,325.754 380.139 C 325.687 380.030,325.825 379.955,326.061 379.973 C 326.319 379.992,326.413 380.083,326.296 380.200 C 325.973 380.523,326.276 380.944,326.744 380.822 C 327.134 380.720,327.150 380.753,326.906 381.145 C 326.750 381.394,326.489 381.536,326.297 381.476 C 326.010 381.385,326.007 381.402,326.275 381.592 C 326.495 381.747,326.681 381.738,326.902 381.558 C 327.164 381.346,327.191 381.373,327.061 381.719 C 326.910 382.119,326.920 382.120,327.324 381.754 C 327.716 381.400,328.469 381.929,328.100 382.299 C 328.050 382.349,328.198 382.403,328.428 382.421 C 328.658 382.438,328.846 382.343,328.846 382.209 C 328.846 382.029,328.909 382.028,329.086 382.206 C 329.218 382.337,329.459 382.394,329.622 382.331 C 329.821 382.255,329.878 382.325,329.796 382.540 C 329.727 382.718,329.774 382.926,329.900 383.004 C 330.419 383.325,330.077 382.319,329.433 381.632 C 329.051 381.225,328.768 380.840,328.803 380.777 C 328.888 380.624,327.263 378.127,326.301 376.931 C 325.879 376.407,325.438 375.824,325.321 375.636 C 324.052 373.605,324.122 373.673,323.686 374.067 C 323.375 374.349,323.222 374.376,323.029 374.183 C 322.836 373.990,322.856 373.932,323.115 373.932 C 323.300 373.932,323.572 373.787,323.718 373.611 C 323.938 373.346,323.915 373.290,323.584 373.287 C 323.292 373.285,323.259 373.237,323.461 373.108 C 323.685 372.966,323.680 372.884,323.436 372.681 C 323.203 372.488,323.086 372.493,322.925 372.700 M323.373 373.548 C 323.501 373.631,323.405 373.684,323.159 373.665 C 322.822 373.640,322.740 373.526,322.825 373.200 C 322.909 372.880,322.965 372.850,323.040 373.082 C 323.095 373.256,323.246 373.465,323.373 373.548 M84.073 373.436 C 83.736 373.773,83.737 373.813,84.095 374.075 C 84.305 374.229,84.424 374.408,84.358 374.474 C 84.008 374.824,83.540 373.799,83.744 373.130 C 83.753 373.101,83.912 373.077,84.096 373.077 C 84.392 373.077,84.390 373.120,84.073 373.436 M319.872 373.359 C 319.872 373.527,320.015 373.784,320.190 373.930 C 320.365 374.075,320.446 374.294,320.371 374.416 C 320.288 374.550,320.337 374.574,320.494 374.478 C 320.692 374.355,320.674 374.228,320.419 373.946 C 320.235 373.743,320.139 373.522,320.206 373.455 C 320.273 373.388,320.225 373.270,320.100 373.193 C 319.974 373.115,319.872 373.190,319.872 373.359 M83.262 374.048 C 83.262 374.219,83.182 374.359,83.084 374.359 C 82.986 374.359,82.905 374.191,82.903 373.985 C 82.900 373.671,82.868 373.661,82.700 373.926 C 82.560 374.148,82.624 374.356,82.917 374.629 C 83.434 375.111,83.467 375.371,82.960 374.973 C 82.079 374.280,82.034 374.193,82.378 373.849 C 82.753 373.474,83.262 373.588,83.262 374.048 M79.813 374.155 C 79.889 374.277,79.835 374.518,79.693 374.689 C 79.484 374.940,79.504 375.000,79.794 375.000 C 80.012 375.000,80.093 374.903,80.001 374.753 C 79.895 374.581,79.997 374.544,80.335 374.633 L 80.822 374.760 80.377 374.346 C 79.897 373.898,79.591 373.795,79.813 374.155 M83.009 375.647 C 82.951 375.741,83.024 375.870,83.172 375.933 C 83.319 375.997,83.164 376.009,82.826 375.961 C 82.061 375.852,81.885 375.691,82.340 375.517 C 82.532 375.443,82.624 375.272,82.543 375.138 C 82.463 375.003,82.558 375.024,82.756 375.184 C 82.953 375.345,83.067 375.553,83.009 375.647 M80.375 376.376 C 80.415 376.572,80.545 376.727,80.662 376.721 C 80.980 376.704,80.921 376.226,80.589 376.115 C 80.409 376.055,80.329 376.153,80.375 376.376 M82.407 377.232 C 82.407 377.401,82.351 377.534,82.283 377.527 C 82.214 377.520,82.110 377.537,82.051 377.566 C 81.747 377.717,80.814 377.664,80.915 377.502 C 80.979 377.398,81.191 377.355,81.387 377.406 C 81.583 377.458,81.865 377.370,82.013 377.211 C 82.353 376.847,82.407 376.850,82.407 377.232 M324.451 377.798 C 324.342 377.591,324.376 377.549,324.560 377.663 C 324.768 377.792,324.755 377.901,324.502 378.154 C 324.223 378.432,324.134 378.436,323.888 378.182 C 323.631 377.916,323.592 377.717,323.696 377.190 C 323.713 377.102,323.926 377.270,324.169 377.564 C 324.411 377.858,324.538 377.963,324.451 377.798 M321.864 377.491 C 322.046 377.673,322.863 377.745,322.863 377.579 C 322.863 377.482,322.619 377.404,322.320 377.404 C 322.021 377.404,321.816 377.443,321.864 377.491 M322.769 378.305 C 323.025 378.499,323.077 378.621,322.904 378.626 C 322.750 378.629,322.690 378.739,322.771 378.869 C 322.873 379.035,322.969 379.021,323.091 378.823 C 323.280 378.518,322.958 377.991,322.583 377.991 C 322.457 377.991,322.541 378.133,322.769 378.305 M80.214 378.369 C 79.928 378.560,79.907 379.274,80.187 379.274 C 80.297 379.274,80.337 379.141,80.275 378.979 C 80.212 378.817,80.269 378.577,80.401 378.445 C 80.672 378.174,80.568 378.132,80.214 378.369 M325.821 378.536 C 325.861 378.572,325.792 378.776,325.667 378.990 C 325.464 379.340,325.440 379.343,325.434 379.017 C 325.430 378.817,325.259 378.548,325.053 378.419 C 324.742 378.224,324.768 378.209,325.214 378.328 C 325.507 378.407,325.781 378.501,325.821 378.536 M80.556 378.942 C 80.556 379.113,80.435 379.329,80.288 379.423 C 80.142 379.517,80.008 379.761,79.992 379.966 C 79.976 380.170,80.048 380.285,80.152 380.220 C 80.257 380.156,80.342 379.964,80.342 379.795 C 80.342 379.473,80.598 379.387,80.839 379.628 C 80.916 379.705,80.872 379.897,80.741 380.055 C 80.610 380.213,80.587 380.343,80.690 380.345 C 80.792 380.347,80.732 380.452,80.556 380.579 C 80.285 380.774,80.293 380.791,80.609 380.689 C 80.815 380.623,80.983 380.668,80.983 380.789 C 80.983 380.909,81.094 380.940,81.229 380.856 C 81.399 380.751,81.350 380.608,81.069 380.394 C 80.677 380.095,80.679 380.089,81.118 380.219 C 81.427 380.311,81.615 380.246,81.703 380.017 C 81.774 379.831,81.761 379.723,81.673 379.778 C 81.584 379.832,81.327 379.741,81.100 379.575 C 80.873 379.409,80.786 379.274,80.906 379.274 C 81.027 379.274,81.125 379.129,81.125 378.953 C 81.125 378.777,80.997 378.632,80.840 378.632 C 80.684 378.632,80.556 378.772,80.556 378.942 M81.354 378.760 C 81.284 378.830,81.279 379.026,81.343 379.194 C 81.440 379.444,81.514 379.431,81.757 379.120 C 82.035 378.761,82.045 378.761,81.921 379.116 C 81.822 379.401,81.875 379.460,82.140 379.358 C 82.411 379.254,82.434 379.157,82.244 378.928 C 81.988 378.620,81.573 378.541,81.354 378.760 M79.060 379.060 C 79.364 379.257,79.201 379.371,78.739 379.284 C 78.622 379.261,78.658 379.370,78.819 379.525 C 79.052 379.749,79.134 379.752,79.212 379.539 C 79.266 379.392,79.422 379.338,79.559 379.420 C 79.696 379.502,79.676 379.407,79.514 379.208 C 79.353 379.009,79.113 378.848,78.980 378.849 C 78.848 378.851,78.884 378.946,79.060 379.060 M327.402 379.792 C 327.468 379.726,327.516 379.799,327.509 379.954 C 327.476 380.700,327.585 381.020,327.839 380.923 C 328.001 380.861,328.114 380.978,328.114 381.209 C 328.114 381.504,328.046 381.544,327.839 381.372 C 327.688 381.247,327.564 381.228,327.563 381.331 C 327.561 381.605,326.898 380.302,326.806 379.842 C 326.745 379.540,326.791 379.503,327.005 379.680 C 327.158 379.807,327.337 379.857,327.402 379.792 M325.214 380.492 C 325.214 380.739,325.820 381.308,325.939 381.174 C 325.980 381.127,325.833 380.905,325.613 380.678 C 325.394 380.452,325.214 380.368,325.214 380.492 M79.189 381.660 C 79.249 381.757,79.181 381.838,79.037 381.838 C 78.893 381.838,78.825 381.888,78.887 381.949 C 79.032 382.095,79.701 381.838,79.701 381.637 C 79.701 381.551,79.561 381.481,79.390 381.481 C 79.219 381.481,79.128 381.562,79.189 381.660 M115.385 381.850 C 115.385 381.975,115.290 382.018,115.173 381.946 C 115.052 381.871,115.017 381.957,115.090 382.149 C 115.183 382.392,115.124 382.447,114.874 382.351 C 114.685 382.279,114.530 382.305,114.530 382.410 C 114.530 382.515,114.722 382.616,114.957 382.634 C 115.192 382.651,115.385 382.562,115.385 382.435 C 115.385 382.309,115.553 382.077,115.759 381.921 C 116.115 381.651,116.115 381.637,115.759 381.631 C 115.553 381.627,115.385 381.726,115.385 381.850 M115.677 382.645 C 115.539 382.863,115.222 382.986,114.871 382.957 C 114.527 382.928,114.347 382.996,114.426 383.125 C 114.499 383.243,114.649 383.285,114.758 383.217 C 114.868 383.150,114.957 383.196,114.957 383.321 C 114.957 383.445,115.059 383.547,115.184 383.547 C 115.308 383.547,115.350 383.451,115.278 383.333 C 115.205 383.216,115.248 383.120,115.372 383.120 C 115.661 383.120,115.668 383.692,115.381 383.870 C 115.113 384.036,115.317 384.408,115.664 384.385 C 115.831 384.374,115.821 384.329,115.634 384.254 C 115.428 384.172,115.516 383.959,115.955 383.478 C 116.288 383.114,116.407 382.931,116.220 383.073 C 115.797 383.392,115.515 383.157,115.844 382.760 C 115.978 382.600,116.045 382.427,115.995 382.377 C 115.945 382.327,115.802 382.447,115.677 382.645 M100.077 384.615 C 100.270 384.615,100.430 384.736,100.434 384.882 C 100.438 385.046,100.551 385.004,100.725 384.776 C 100.881 384.570,101.087 384.402,101.183 384.402 C 101.278 384.402,101.133 384.639,100.861 384.929 C 100.588 385.219,100.292 385.412,100.203 385.356 C 100.113 385.301,100.096 385.472,100.164 385.737 C 100.279 386.182,100.258 386.194,99.889 385.897 C 99.654 385.709,99.557 385.687,99.652 385.846 C 99.920 386.291,99.169 386.412,98.711 385.998 C 98.393 385.711,98.350 385.550,98.529 385.333 C 98.861 384.933,99.127 385.164,98.995 385.737 C 98.895 386.171,98.939 386.156,99.455 385.581 C 99.770 385.231,99.924 384.910,99.797 384.868 C 99.671 384.826,99.467 384.584,99.345 384.330 C 99.142 383.909,99.149 383.901,99.424 384.241 C 99.591 384.447,99.884 384.615,100.077 384.615 M113.706 384.649 C 113.091 385.225,113.038 385.348,113.334 385.514 C 113.738 385.740,114.171 385.540,113.973 385.219 C 113.884 385.076,113.770 385.100,113.652 385.287 C 113.527 385.484,113.467 385.495,113.465 385.320 C 113.463 385.179,113.582 384.987,113.729 384.893 C 114.014 384.710,114.636 383.974,114.503 383.975 C 114.459 383.976,114.100 384.279,113.706 384.649 M96.860 384.682 C 96.780 384.813,96.959 384.834,97.335 384.740 C 97.863 384.607,97.904 384.630,97.663 384.920 C 97.511 385.102,97.302 385.199,97.198 385.135 C 97.094 385.071,97.033 385.192,97.062 385.404 C 97.091 385.617,97.019 385.810,96.902 385.834 C 96.784 385.858,96.719 385.684,96.757 385.448 C 96.795 385.211,96.724 384.895,96.600 384.745 C 96.435 384.546,96.457 384.473,96.682 384.473 C 96.851 384.473,96.932 384.567,96.860 384.682 M114.568 385.096 C 114.714 385.361,114.812 385.656,114.784 385.753 C 114.756 385.850,114.836 385.865,114.962 385.787 C 115.124 385.688,115.120 385.560,114.949 385.354 C 114.816 385.193,114.769 384.961,114.845 384.838 C 114.920 384.716,114.829 384.615,114.642 384.615 C 114.352 384.615,114.341 384.687,114.568 385.096 M115.485 384.840 C 115.282 385.168,115.560 385.380,115.834 385.106 C 115.988 384.953,115.991 384.833,115.845 384.743 C 115.726 384.669,115.563 384.713,115.485 384.840 M98.168 385.328 C 98.108 385.484,97.918 385.613,97.747 385.613 C 97.366 385.613,97.337 385.332,97.703 385.184 C 98.165 384.998,98.281 385.034,98.168 385.328 M95.299 385.813 C 95.299 386.231,95.139 386.184,94.874 385.689 C 94.690 385.344,94.708 385.289,94.974 385.391 C 95.153 385.460,95.299 385.650,95.299 385.813 M113.010 385.951 C 112.865 386.269,112.877 387.220,113.023 386.984 C 113.125 386.819,113.153 386.539,113.085 386.363 C 113.005 386.153,113.049 386.095,113.212 386.196 C 113.349 386.280,113.462 386.248,113.462 386.124 C 113.462 385.933,113.084 385.788,113.010 385.951 M96.801 387.038 C 96.807 387.464,96.826 387.470,97.032 387.114 C 97.219 386.794,97.317 386.774,97.613 386.997 C 97.914 387.223,97.928 387.219,97.705 386.968 C 97.274 386.484,96.794 386.521,96.801 387.038 M261.401 394.960 C 261.418 395.241,261.504 395.427,261.592 395.373 C 261.813 395.236,261.793 394.709,261.561 394.565 C 261.456 394.500,261.384 394.678,261.401 394.960 M260.074 395.796 C 259.885 396.023,259.935 396.180,260.294 396.495 C 260.549 396.719,260.687 396.782,260.601 396.635 C 260.503 396.467,260.573 396.368,260.791 396.368 C 260.981 396.368,261.082 396.280,261.017 396.174 C 260.951 396.067,260.681 396.028,260.416 396.086 C 260.040 396.168,260.004 396.143,260.250 395.970 C 260.423 395.849,260.509 395.694,260.441 395.626 C 260.373 395.558,260.208 395.634,260.074 395.796 M261.111 397.434 C 261.111 397.553,261.218 397.650,261.348 397.650 C 261.478 397.650,261.530 397.791,261.464 397.963 C 261.398 398.136,261.450 398.343,261.581 398.424 C 261.725 398.512,261.758 398.473,261.666 398.324 C 261.582 398.188,261.615 398.077,261.740 398.077 C 262.104 398.077,262.001 397.774,261.538 397.485 C 261.285 397.327,261.111 397.306,261.111 397.434 M133.549 400.532 C 133.404 400.707,133.216 400.807,133.131 400.755 C 133.046 400.703,132.977 400.798,132.977 400.968 C 132.977 401.189,133.052 401.213,133.244 401.054 C 133.439 400.892,133.541 400.937,133.622 401.217 C 133.715 401.540,133.727 401.534,133.699 401.175 C 133.680 400.940,133.740 400.628,133.832 400.481 C 134.064 400.110,133.870 400.145,133.549 400.532 M134.479 400.533 C 134.412 400.709,134.287 400.809,134.201 400.756 C 134.116 400.703,134.046 400.800,134.046 400.971 C 134.046 401.142,134.094 401.234,134.153 401.175 C 134.212 401.116,134.443 401.233,134.667 401.436 C 134.891 401.638,135.047 401.711,135.013 401.597 C 134.979 401.482,135.069 401.178,135.212 400.921 C 135.407 400.569,135.410 400.416,135.224 400.300 C 135.071 400.206,135.035 400.241,135.129 400.394 C 135.220 400.542,135.143 400.641,134.936 400.641 C 134.746 400.641,134.650 400.545,134.722 400.427 C 134.795 400.310,134.798 400.214,134.728 400.214 C 134.659 400.214,134.547 400.357,134.479 400.533 M55.814 402.038 C 55.663 402.210,55.598 402.350,55.670 402.350 C 55.743 402.350,55.505 402.648,55.142 403.011 C 53.813 404.340,53.851 404.487,55.523 404.487 C 56.738 404.487,57.025 404.421,57.133 404.113 C 57.206 403.908,57.327 403.595,57.403 403.419 C 57.479 403.243,57.338 403.339,57.089 403.632 C 56.841 403.926,56.635 404.066,56.631 403.942 C 56.627 403.819,56.740 403.602,56.881 403.461 C 57.082 403.260,56.988 403.221,56.454 403.283 C 56.077 403.327,55.769 403.279,55.769 403.177 C 55.769 403.075,55.871 402.991,55.996 402.991 C 56.120 402.991,56.172 402.911,56.112 402.813 C 56.051 402.715,56.146 402.635,56.322 402.635 C 56.507 402.635,56.594 402.760,56.529 402.931 C 56.466 403.094,56.498 403.176,56.600 403.113 C 57.013 402.858,56.808 401.924,56.388 402.148 C 56.072 402.318,56.018 402.295,56.117 402.035 C 56.272 401.631,56.173 401.632,55.814 402.038 M57.308 401.966 C 57.167 402.107,57.051 402.411,57.051 402.642 C 57.051 403.092,57.268 403.008,57.340 402.530 C 57.364 402.373,57.459 402.123,57.551 401.976 C 57.762 401.638,57.641 401.633,57.308 401.966 M132.906 401.985 C 132.906 402.408,133.583 402.964,133.941 402.836 C 134.136 402.767,134.236 402.776,134.164 402.857 C 134.091 402.938,133.819 403.046,133.559 403.096 C 133.299 403.146,132.901 403.246,132.675 403.317 C 132.231 403.458,132.077 402.919,132.489 402.665 C 132.642 402.570,132.635 402.432,132.465 402.227 C 132.328 402.062,132.121 401.987,132.004 402.059 C 131.875 402.139,131.906 402.262,132.082 402.374 C 132.257 402.485,132.275 402.559,132.129 402.561 C 131.985 402.563,131.906 402.866,131.935 403.304 C 131.962 403.711,131.902 403.993,131.801 403.930 C 131.700 403.868,131.667 403.736,131.728 403.638 C 131.788 403.539,131.660 403.505,131.442 403.562 C 131.225 403.619,130.893 403.512,130.704 403.324 C 130.391 403.010,130.341 403.022,130.103 403.467 C 129.873 403.899,129.882 403.922,130.181 403.676 C 130.407 403.489,130.563 403.472,130.656 403.622 C 130.732 403.745,130.687 403.846,130.556 403.846 C 130.424 403.846,130.375 403.941,130.447 404.057 C 130.522 404.179,130.436 404.214,130.246 404.141 C 130.064 404.071,129.915 404.122,129.915 404.254 C 129.915 404.408,130.334 404.476,131.090 404.445 C 131.736 404.418,132.266 404.296,132.268 404.174 C 132.270 404.053,132.356 404.086,132.459 404.249 C 132.752 404.712,133.606 404.370,134.028 403.621 C 134.509 402.766,134.499 402.564,133.974 402.564 C 133.737 402.564,133.547 402.422,133.547 402.244 C 133.547 401.896,133.894 401.801,134.010 402.117 C 134.130 402.446,134.885 402.475,134.996 402.156 C 135.069 401.948,134.993 401.897,134.751 401.989 C 134.559 402.063,134.402 402.050,134.402 401.961 C 134.402 401.872,134.065 401.791,133.654 401.780 C 133.243 401.769,132.906 401.861,132.906 401.985 M128.920 403.955 C 128.713 404.401,128.727 404.487,129.009 404.487 C 129.194 404.487,129.284 404.426,129.210 404.352 C 129.136 404.278,129.171 404.038,129.289 403.818 C 129.406 403.598,129.427 403.420,129.334 403.420 C 129.242 403.421,129.056 403.662,128.920 403.955 M58.236 404.045 C 58.090 404.281,58.427 404.536,58.624 404.339 C 58.827 404.136,58.789 403.846,58.560 403.846 C 58.449 403.846,58.303 403.936,58.236 404.045 " stroke="none" fill="#fbfbfb" fill-rule="evenodd"></path><path id="path1" d="M188.034 0.224 C 68.708 7.902,-16.834 115.536,2.686 233.440 C 17.145 320.774,88.974 388.864,177.137 398.811 C 195.185 400.847,215.338 400.311,233.440 397.314 C 341.973 379.345,415.420 275.923,397.314 166.560 C 385.726 96.564,336.707 37.313,269.779 12.403 C 252.497 5.970,235.991 2.313,216.132 0.517 C 211.673 0.114,192.805 -0.083,188.034 0.224 M119.551 59.620 C 135.876 61.441,149.818 74.412,153.731 91.420 C 155.976 101.174,155.379 115.921,152.428 123.611 C 152.319 123.895,157.636 123.932,199.575 123.932 C 244.492 123.932,246.839 123.913,246.737 123.558 C 240.231 101.007,245.151 80.485,260.043 68.057 C 274.580 55.925,295.514 56.691,308.152 69.816 C 310.851 72.619,313.566 76.389,311.403 74.330 C 302.509 65.862,289.272 62.594,278.575 66.225 C 263.971 71.182,255.265 86.867,257.575 104.060 C 259.395 117.614,265.010 128.660,279.732 147.650 C 294.506 166.706,300.455 176.028,304.548 186.538 C 315.178 213.834,309.857 245.602,290.293 271.650 C 279.975 285.387,264.761 298.488,249.916 306.420 C 247.321 307.806,247.354 307.497,249.543 309.958 C 254.833 315.906,261.175 320.447,267.575 322.870 L 269.444 323.578 269.444 330.165 L 269.444 336.752 199.466 336.752 L 129.487 336.752 129.487 330.264 L 129.487 323.776 130.929 323.301 C 136.835 321.358,143.140 317.145,148.673 311.445 C 152.458 307.547,152.406 308.065,149.187 306.295 C 101.249 279.933,78.164 229.087,94.816 186.538 C 98.893 176.120,104.344 167.489,118.230 149.469 C 136.450 125.823,142.085 113.786,142.086 98.504 C 142.088 68.278,109.858 53.760,87.947 74.117 L 87.112 74.893 88.054 73.524 C 94.621 63.977,107.531 58.278,119.551 59.620 M160.314 131.571 C 160.949 132.481,170.002 145.847,180.430 161.271 C 190.859 176.696,199.456 189.316,199.536 189.315 C 199.662 189.314,239.524 130.547,239.708 130.091 C 239.747 129.994,221.640 129.915,199.469 129.915 L 159.159 129.915 160.314 131.571 M227.475 164.668 C 215.263 182.722,205.271 197.610,205.271 197.751 C 205.271 198.022,210.714 206.185,210.897 206.188 C 210.956 206.190,220.830 191.663,232.840 173.907 L 254.675 141.624 253.009 138.387 C 252.092 136.606,251.016 134.404,250.618 133.494 C 250.219 132.583,249.845 131.839,249.786 131.840 C 249.728 131.841,239.687 146.613,227.475 164.668 M148.809 133.366 C 148.482 134.112,147.411 136.301,146.428 138.231 C 145.445 140.160,144.690 141.868,144.750 142.027 C 145.255 143.341,188.136 206.184,188.363 205.942 C 188.508 205.788,189.830 203.883,191.301 201.709 L 193.974 197.755 171.862 165.063 C 159.700 147.083,149.671 132.290,149.576 132.190 C 149.480 132.090,149.135 132.619,148.809 133.366 M258.736 152.068 C 258.116 152.987,248.349 167.424,237.032 184.149 L 216.456 214.558 219.362 218.831 C 220.960 221.181,222.292 223.073,222.324 223.037 C 222.793 222.486,265.385 159.340,265.385 159.196 C 265.385 159.084,264.646 157.858,263.744 156.473 C 262.842 155.087,261.600 153.153,260.983 152.175 L 259.863 150.397 258.736 152.068 M136.554 155.013 C 134.764 157.787,133.789 159.491,133.893 159.663 C 134.219 160.204,176.541 222.760,176.686 222.915 C 176.920 223.165,182.526 214.748,182.380 214.366 C 182.310 214.186,172.721 199.942,161.070 182.714 C 149.419 165.485,139.773 151.219,139.633 151.012 C 139.412 150.685,139.011 151.207,136.554 155.013 M249.520 199.300 C 237.691 216.784,227.991 231.173,227.964 231.276 C 227.920 231.441,233.588 240.005,233.668 239.895 C 233.686 239.871,242.574 226.725,253.420 210.684 C 264.266 194.642,273.908 180.387,274.849 179.005 L 276.558 176.493 274.713 173.449 C 273.699 171.775,272.454 169.754,271.948 168.958 L 271.027 167.509 249.520 199.300 M126.018 171.198 C 124.905 172.995,123.703 174.995,123.347 175.641 L 122.699 176.816 143.989 208.274 C 155.698 225.575,165.344 239.734,165.426 239.737 C 165.567 239.743,171.154 231.541,171.154 231.328 C 171.154 231.123,128.408 168.054,128.228 167.993 C 128.126 167.958,127.131 169.401,126.018 171.198 M260.470 216.685 C 249.012 233.620,239.554 247.649,239.454 247.861 C 239.309 248.166,240.726 250.396,246.184 258.458 C 249.987 264.074,253.161 268.762,253.238 268.876 C 253.400 269.116,255.616 267.552,258.654 265.054 C 265.795 259.181,275.415 247.008,279.762 238.341 C 288.089 221.742,288.943 202.473,282.018 187.446 L 281.303 185.896 260.470 216.685 M117.096 187.981 C 109.064 207.032,112.071 229.073,125.241 247.685 C 130.947 255.748,140.624 265.691,145.650 268.656 C 145.883 268.794,159.641 248.759,159.697 248.199 C 159.724 247.929,118.138 186.333,117.925 186.328 C 117.853 186.326,117.480 187.070,117.096 187.981 M196.603 210.266 L 193.741 214.530 194.770 216.079 C 195.337 216.931,196.641 218.858,197.669 220.362 L 199.538 223.095 202.441 218.827 L 205.345 214.559 202.446 210.271 C 200.852 207.913,199.529 205.987,199.507 205.992 C 199.484 205.997,198.178 207.920,196.603 210.266 M185.298 227.009 C 183.747 229.293,182.479 231.244,182.479 231.344 C 182.479 231.445,183.761 233.417,185.329 235.728 L 188.179 239.929 191.075 235.636 L 193.971 231.343 191.291 227.370 C 189.817 225.185,188.499 223.275,188.364 223.126 C 188.172 222.915,187.497 223.769,185.298 227.009 M207.942 227.118 L 205.094 231.354 207.901 235.495 C 209.445 237.773,210.794 239.637,210.897 239.637 C 211.001 239.637,212.352 237.774,213.898 235.497 L 216.710 231.357 213.857 227.119 C 212.288 224.787,210.956 222.880,210.897 222.881 C 210.839 222.881,209.509 224.788,207.942 227.118 M176.243 240.426 C 175.971 240.802,174.681 242.701,173.376 244.646 L 171.005 248.184 173.676 252.137 C 175.145 254.311,176.463 256.217,176.604 256.372 C 176.925 256.723,182.594 248.472,182.393 247.947 C 182.245 247.563,176.932 239.744,176.818 239.744 C 176.774 239.744,176.516 240.051,176.243 240.426 M196.599 243.916 C 195.044 246.210,193.803 248.160,193.841 248.248 C 194.171 249.008,199.468 256.582,199.609 256.495 C 199.891 256.321,205.178 248.429,205.190 248.165 C 205.201 247.902,199.748 239.762,199.553 239.751 C 199.484 239.747,198.154 241.621,196.599 243.916 M219.294 243.944 L 216.473 248.128 219.247 252.260 C 220.773 254.533,222.099 256.441,222.193 256.499 C 222.329 256.583,227.678 248.932,227.953 248.260 C 228.034 248.063,222.460 239.740,222.255 239.752 C 222.178 239.756,220.846 241.642,219.294 243.944 M159.621 264.965 C 156.427 269.683,153.855 273.584,153.904 273.633 C 154.229 273.958,162.578 277.667,162.698 277.539 C 162.928 277.294,170.974 265.332,171.061 265.106 C 171.117 264.958,169.873 262.935,168.296 260.612 L 165.427 256.387 159.621 264.965 M185.348 260.524 C 183.829 262.786,182.591 264.781,182.598 264.957 C 182.609 265.236,185.971 270.421,187.614 272.692 L 188.185 273.482 190.994 269.344 C 192.539 267.067,193.803 265.094,193.803 264.957 C 193.803 264.754,188.285 256.410,188.151 256.410 C 188.129 256.410,186.868 258.261,185.348 260.524 M230.807 260.554 C 229.258 262.838,227.991 264.817,227.991 264.951 C 227.991 265.165,233.010 272.722,235.615 276.433 L 236.546 277.758 238.305 277.009 C 242.779 275.103,245.315 273.852,245.218 273.601 C 245.124 273.357,234.083 256.934,233.765 256.565 C 233.686 256.474,232.355 258.269,230.807 260.554 M207.916 260.792 L 205.107 264.960 207.923 269.125 C 209.472 271.416,210.814 273.291,210.905 273.291 C 210.995 273.291,212.333 271.417,213.877 269.126 L 216.683 264.962 213.885 260.793 C 212.346 258.500,211.005 256.624,210.906 256.624 C 210.806 256.624,209.461 258.500,207.916 260.792 M174.462 276.633 C 171.683 280.714,171.778 280.479,172.792 280.744 C 175.339 281.411,177.283 281.859,179.338 282.251 C 183.373 283.022,183.379 282.945,179.712 277.482 C 178.164 275.177,176.862 273.291,176.818 273.291 C 176.774 273.291,175.714 274.795,174.462 276.633 M196.676 277.389 C 195.155 279.643,193.881 281.559,193.844 281.647 C 193.808 281.735,194.134 282.342,194.569 282.997 L 195.360 284.188 199.485 284.188 L 203.611 284.188 204.128 283.494 C 205.492 281.660,205.646 282.226,202.497 277.519 C 200.947 275.203,199.626 273.304,199.561 273.299 C 199.495 273.294,198.197 275.135,196.676 277.389 M221.968 273.659 C 221.713 273.952,217.437 280.251,216.615 281.544 C 216.528 281.682,216.636 282.016,216.855 282.287 L 217.254 282.779 219.364 282.408 C 222.271 281.897,227.137 280.723,227.137 280.533 C 227.137 280.396,222.823 273.886,222.441 273.446 C 222.362 273.355,222.149 273.451,221.968 273.659 " stroke="none" fill="#045cb4" fill-rule="evenodd"></path></g></svg>