<svg id="svg" xmlns="http://www.w3.org/2000/svg" xmlns:xlink="http://www.w3.org/1999/xlink" width="400" height="141.3953488372093" viewBox="0, 0, 400,141.3953488372093" version="1.1"><g id="svgg"><path id="path0" d="M118.140 12.093 L 118.140 24.186 128.372 24.186 L 138.605 24.186 138.605 12.093 L 138.605 0.000 128.372 0.000 L 118.140 0.000 118.140 12.093 M0.000 69.767 L 0.000 138.605 34.419 138.605 L 68.837 138.605 68.837 129.302 L 68.837 120.000 45.116 120.000 L 21.395 120.000 21.395 60.465 L 21.395 0.930 10.698 0.930 L 0.000 0.930 0.000 69.767 M232.060 34.443 C 228.882 35.451,224.745 37.680,222.525 39.580 L 218.605 42.936 218.605 39.142 L 218.605 35.349 208.837 35.349 L 199.070 35.349 199.070 86.977 L 199.070 138.605 209.249 138.605 L 219.428 138.605 219.714 105.349 C 220.087 61.940,222.240 56.646,240.792 53.512 L 244.651 52.860 244.651 42.709 L 244.651 32.558 241.163 32.610 C 239.244 32.639,235.148 33.464,232.060 34.443 M329.302 34.030 C 288.796 44.717,275.440 98.491,306.216 126.984 C 326.630 145.884,360.605 146.432,376.285 128.113 L 379.535 124.316 379.535 131.460 L 379.535 138.605 389.767 138.605 L 400.000 138.605 400.000 86.977 L 400.000 35.349 389.767 35.349 L 379.535 35.349 379.535 41.934 L 379.535 48.519 375.228 44.212 C 365.001 33.985,345.697 29.705,329.302 34.030 M118.140 86.977 L 118.140 138.605 128.372 138.605 L 138.605 138.605 138.605 86.977 L 138.605 35.349 128.372 35.349 L 118.140 35.349 118.140 86.977 M359.271 54.305 C 392.961 70.426,381.822 122.326,344.673 122.326 C 304.132 122.326,296.885 64.784,335.814 51.982 C 340.824 50.334,353.621 51.602,359.271 54.305 " stroke="none" fill="#000000" fill-rule="evenodd"></path></g></svg>